<?xml version="1.0" encoding="utf-8"?>
<!-- Generator: Adobe Illustrator 16.0.0, SVG Export Plug-In . SVG Version: 6.00 Build 0)  -->
<!DOCTYPE svg PUBLIC "-//W3C//DTD SVG 1.1//EN" "http://www.w3.org/Graphics/SVG/1.1/DTD/svg11.dtd">
<svg version="1.1" id="Livello_1" xmlns="http://www.w3.org/2000/svg" xmlns:xlink="http://www.w3.org/1999/xlink" x="0px" y="0px"
	 width="681.7px" height="450.88px" viewBox="0 0 681.7 450.88" enable-background="new 0 0 681.7 450.88" xml:space="preserve">
<g id="TXAzzn_1_">
	<g>
		<g>
			<path fill="#FFFFFF" d="M124.93,385.847c0-106.728,0-213.456,0-320.184c144.156,0,288.312,0,432.469,0
				c0,106.728,0,213.457,0,320.184C413.242,385.847,269.086,385.847,124.93,385.847z M342.474,124.912
				c0-0.13-0.001-0.261-0.001-0.391c-0.522,0-1.046-0.002-1.568,0c-38.893,0.13-77.785,0.262-116.677,0.38
				c-1.495,0.004-2.702,0.494-3.839,1.48c-21.622,18.742-43.229,37.502-64.949,56.13c-2.536,2.174-3.833,4.239-3.036,7.623
				c0.332,1.41,0.52,2.604,1.69,3.651c16.798,15.021,33.556,30.088,50.319,45.148c23.296,20.931,46.59,41.864,69.885,62.796
				c18.556,16.674,37.109,33.35,55.669,50.019c3.704,3.326,7.431,6.627,11.157,9.928c1.559,1.382,1.587,1.384,3.108-0.119
				c0.777-0.768,1.434-1.663,2.236-2.399c2.588-2.371,5.222-4.692,7.832-7.038c20.021-17.991,40.042-35.984,60.062-53.976
				c2.885-2.592,5.776-5.177,8.661-7.768c35.36-31.767,70.706-63.551,106.118-95.26c2.048-1.834,3.177-3.653,3.333-6.471
				c0.124-2.248-0.414-3.669-2.098-5.12c-22.033-18.986-44.018-38.03-65.993-57.085c-1.18-1.022-2.425-1.54-3.979-1.539
				C421.095,124.915,381.784,124.912,342.474,124.912z"/>
			<path fill-rule="evenodd" clip-rule="evenodd" d="M342.474,124.912c39.311,0,78.621,0.003,117.933-0.01
				c1.554-0.001,2.799,0.517,3.979,1.539c21.976,19.055,43.96,38.099,65.993,57.085c1.684,1.451,2.222,2.872,2.098,5.12
				c-0.156,2.817-1.285,4.637-3.333,6.471c-35.412,31.709-70.758,63.493-106.118,95.26c-2.885,2.591-5.776,5.176-8.661,7.768
				c-20.021,17.991-40.041,35.984-60.062,53.976c-2.61,2.346-5.244,4.667-7.832,7.038c-0.803,0.736-1.459,1.632-2.236,2.399
				c-1.521,1.503-1.549,1.501-3.108,0.119c-3.727-3.301-7.454-6.602-11.157-9.928c-18.561-16.669-37.114-33.345-55.669-50.019
				c-23.295-20.932-46.588-41.865-69.885-62.796c-16.764-15.061-33.521-30.127-50.319-45.148c-1.17-1.047-1.358-2.241-1.69-3.651
				c-0.797-3.384,0.5-5.449,3.036-7.623c21.72-18.628,43.327-37.388,64.949-56.13c1.137-0.986,2.344-1.477,3.839-1.48
				c38.892-0.118,77.784-0.25,116.677-0.38c0.522-0.002,1.046,0,1.568,0C342.473,124.651,342.474,124.782,342.474,124.912z
				 M342.371,353.077c0.249-0.533,0.435-0.894,0.588-1.268c6.194-15.124,12.213-30.323,18.678-45.331
				c2.096-4.864,2.472-9.245,1.22-14.431c-6.759-28.008-13.149-56.104-19.669-84.17c-0.223-0.956-0.473-1.906-0.798-3.215
				c-0.221,0.585-0.315,0.769-0.36,0.965c-7.164,30.82-14.329,61.639-21.45,92.469c-0.184,0.795-0.077,1.785,0.233,2.547
				c6.969,17.127,13.985,34.234,20.997,51.344C341.942,352.311,342.129,352.611,342.371,353.077z M400.577,145.825
				c-0.882-0.293-1.41-0.481-1.946-0.645c-17.975-5.508-35.943-11.041-53.945-16.462c-1.425-0.429-3.201-0.446-4.622-0.02
				c-17,5.114-33.964,10.349-50.938,15.551c-1.566,0.48-3.133,0.959-4.95,1.515c0.615,0.451,0.934,0.71,1.276,0.933
				c18.592,12.059,37.192,24.105,55.766,36.193c0.922,0.6,1.515,0.462,2.354-0.085c12.689-8.26,25.399-16.487,38.104-24.723
				C387.869,154.067,394.062,150.051,400.577,145.825z M366.861,292.476c0.123,0.028,0.247,0.058,0.371,0.086
				c13.049-31.85,26.098-63.7,39.19-95.655c-0.468-0.047-0.673-0.086-0.878-0.084c-11.166,0.092-21.654-2.829-31.801-7.214
				c-1.043-0.45-1.893-0.504-2.965-0.082c-6.746,2.656-13.677,4.684-20.844,5.847c-1.784,0.289-3.576,0.522-5.461,0.795
				C351.967,228.4,359.414,260.438,366.861,292.476z M317.445,292.521c0.125,0.004,0.25,0.008,0.374,0.012
				c7.462-32.103,14.925-64.205,22.394-96.334c-0.455-0.108-0.654-0.18-0.858-0.201c-8.975-0.953-17.565-3.403-25.973-6.604
				c-0.624-0.237-1.539-0.108-2.183,0.168c-7.648,3.273-15.516,5.777-23.803,6.767c-2.944,0.351-5.918,0.445-9.087,0.671
				C291.371,228.879,304.408,260.7,317.445,292.521z M371.974,291.316c0.08,0.056,0.161,0.112,0.241,0.17
				c32.974-32.392,65.947-64.783,99.144-97.395c-2.026,0.21-3.677,0.44-5.334,0.541c-8.644,0.525-16.687-1.837-24.552-5.104
				c-0.682-0.283-1.658-0.334-2.336-0.072c-8.691,3.351-17.6,5.838-26.868,6.897c-1.18,0.136-1.676,0.638-2.098,1.668
				c-10.997,26.91-22.025,53.807-33.048,80.705C375.404,282.922,373.689,287.12,371.974,291.316z M312.398,291.405
				c0.1-0.047,0.2-0.095,0.299-0.142c-0.945-2.312-1.887-4.626-2.834-6.938c-11.773-28.735-23.553-57.466-35.295-86.214
				c-0.474-1.161-1.073-1.644-2.346-1.788c-9.109-1.039-17.873-3.478-26.39-6.819c-1.01-0.396-1.817-0.396-2.812,0.041
				c-5.493,2.409-11.169,4.34-17.167,4.826c-4.029,0.326-8.106,0.062-12.169,0.062C246.504,226.676,279.451,259.041,312.398,291.405
				z M463.801,207.404c-0.174-0.158-0.348-0.316-0.521-0.475c-1.123,1.29-2.164,2.663-3.38,3.858
				c-30.3,29.798-60.622,59.575-90.919,89.377c-0.65,0.64-1.22,1.456-1.566,2.297c-6.857,16.661-13.676,33.339-20.495,50.016
				c-0.114,0.279-0.142,0.595-0.282,1.222c0.477-0.402,0.676-0.561,0.866-0.73c19.687-17.683,39.347-35.394,59.089-53.015
				c2.744-2.45,4.883-5.235,6.754-8.366c14.808-24.777,29.683-49.515,44.534-74.266
				C459.861,214.021,461.827,210.711,463.801,207.404z M221.218,207.319c-0.081,0.057-0.162,0.113-0.243,0.17
				c0.085,0.176,0.157,0.359,0.257,0.526c17.497,29.161,34.994,58.322,52.51,87.472c0.424,0.707,0.992,1.361,1.606,1.914
				c20.615,18.54,41.242,37.065,61.872,55.589c0.235,0.212,0.517,0.37,0.863,0.614c-0.016-0.284,0.005-0.395-0.031-0.481
				c-6.95-16.968-13.897-33.936-20.879-50.89c-0.307-0.745-0.841-1.45-1.421-2.02c-27.353-26.903-54.722-53.789-82.091-80.677
				C229.516,215.463,225.366,211.392,221.218,207.319z M409.089,144.972c21.592,12.354,42.92,24.559,64.424,36.863
				c0-0.537,0.011-0.795-0.001-1.051c-0.65-13.234-1.314-26.468-1.931-39.703c-0.047-1.02-0.532-1.298-1.372-1.55
				c-6.818-2.044-13.625-4.128-20.436-6.199c-4.207-1.28-8.492-2.353-12.588-3.924c-2.01-0.771-3.408-0.575-5.044,0.585
				c-2.263,1.604-4.644,3.037-6.973,4.547C419.903,137.955,414.639,141.371,409.089,144.972z M275.533,145.011
				c-0.618-0.44-1.019-0.751-1.442-1.025c-6.726-4.363-13.521-8.624-20.149-13.131c-2.483-1.688-4.529-2.152-7.586-1.125
				c-10.324,3.471-20.802,6.486-31.251,9.574c-1.539,0.455-2,1.147-2.068,2.697c-0.572,12.827-1.237,25.65-1.866,38.475
				c-0.019,0.376,0.048,0.756,0.088,1.319C232.747,169.497,254.047,157.308,275.533,145.011z M511.028,194.192
				c-2.636,0-5.087,0.096-7.526-0.02c-5.796-0.275-11.468-1.415-16.893-3.39c-3.57-1.301-6.055,1.28-9.092,1.763
				c-0.081,0.013-0.159,0.132-0.213,0.217c-0.859,1.342-1.746,2.668-2.566,4.034c-17.793,29.646-35.578,59.297-53.361,88.948
				c-0.17,0.284-0.294,0.596-0.498,1.015c0.281-0.086,0.395-0.09,0.465-0.146c0.283-0.232,0.564-0.469,0.824-0.727
				c5.498-5.456,12.191-9.687,16.643-16.217c18.8-19.649,37.6-39.299,56.4-58.948C500.457,205.238,505.705,199.755,511.028,194.192z
				 M263.565,286.829c0.085-0.051,0.171-0.103,0.257-0.154c-0.11-0.218-0.208-0.442-0.333-0.651
				c-17.863-29.78-35.719-59.565-53.609-89.331c-1.562-2.597-3.254-5.168-6.708-5.552c-0.303-0.033-0.614-0.169-0.879-0.328
				c-1.231-0.736-2.414-0.545-3.74-0.127c-7.892,2.489-15.895,4.26-24.263,3.283c-0.16-0.019-0.335,0.093-0.606,0.175
				c0.342,0.383,0.574,0.66,0.824,0.922c20.68,21.617,41.4,43.195,62.006,64.882c3.934,4.14,7.846,8.308,11.569,12.675
				C252.594,277.912,258.349,282.142,263.565,286.829z M277.053,184.646c20.01,0,39.722,0,59.755,0
				c-18.7-12.121-37.19-24.107-55.921-36.249C279.594,160.616,278.34,172.474,277.053,184.646z M403.807,148.393
				c-18.754,12.158-37.211,24.124-55.824,36.191c20.027,0,39.774,0,59.654,0C406.354,172.465,405.1,160.609,403.807,148.393z
				 M215.381,183.938c0.031,0.131,0.061,0.263,0.092,0.395c19.183,0,38.367,0,57.681,0c1.238-11.693,2.482-23.454,3.77-35.61
				C256.209,160.575,235.795,172.257,215.381,183.938z M469.271,184.333c0.017-0.131,0.034-0.263,0.051-0.394
				c-20.413-11.68-40.827-23.358-61.479-35.175c0.062,0.894,0.084,1.41,0.139,1.923c1.124,10.626,2.29,21.248,3.336,31.882
				c0.158,1.594,0.623,2.043,2.234,2.03c18.074-0.137,36.148-0.19,54.223-0.267C468.272,184.331,468.771,184.333,469.271,184.333z
				 M209.159,142.438c-0.102-0.047-0.205-0.093-0.307-0.14c-12.2,13.859-24.399,27.719-36.869,41.885c11.996,0,23.493,0,35.105,0
				C207.782,170.199,208.471,156.319,209.159,142.438z M512.693,184.159c-12.478-14.172-24.647-27.995-36.818-41.818
				c-0.112,0.038-0.226,0.076-0.338,0.114c0.691,13.915,1.383,27.83,2.071,41.704C489.312,184.159,500.77,184.159,512.693,184.159z
				 M326.409,128.756c-22.936,0-45.501,0-68.066,0c6.848,4.802,13.728,9.294,20.661,13.703c0.539,0.343,1.511,0.297,2.18,0.095
				c11.482-3.466,22.948-6.985,34.417-10.493C319.093,130.992,322.585,129.925,326.409,128.756z M358.366,128.698
				c0.649,0.24,1.015,0.396,1.392,0.512c14.669,4.488,29.336,8.984,44.022,13.42c0.634,0.191,1.575,0.04,2.14-0.319
				c6.539-4.163,13.033-8.396,19.537-12.616c0.324-0.211,0.615-0.474,1.287-0.996C403.775,128.698,381.242,128.698,358.366,128.698z
				 M212.386,240.84c0.082-0.08,0.164-0.16,0.246-0.24c-0.404-0.434-0.805-0.869-1.213-1.298
				c-14.709-15.421-29.417-30.842-44.136-46.255c-0.238-0.249-0.567-0.466-0.894-0.567c-3.287-1.024-6.583-2.021-10.379-3.179
				c0.549,0.882,0.803,1.595,1.297,2.04c16.224,14.615,32.47,29.204,48.713,43.797C208.14,237.042,210.264,238.939,212.386,240.84z
				 M471.19,241.488c0.056,0.06,0.111,0.12,0.166,0.18c0.591-0.513,1.189-1.018,1.771-1.54c8.229-7.388,16.455-14.776,24.681-22.167
				c9.783-8.792,19.57-17.581,29.334-26.396c0.571-0.517,0.942-1.254,1.407-1.889c-0.126-0.093-0.253-0.186-0.379-0.277
				c-2.631,0.847-5.238,1.779-7.901,2.508c-1.608,0.439-2.849,1.168-4.02,2.408c-9.396,9.94-18.876,19.802-28.33,29.687
				C482.344,229.831,476.767,235.659,471.19,241.488z M429.357,188.641c-15.594,0-31.015,0-46.436,0
				C398.384,194.727,413.802,193.698,429.357,188.641z M301.818,188.529c-15.416,0-30.831,0-46.247,0
				C270.973,193.701,286.396,194.728,301.818,188.529z M496.536,159.458c-0.077,0.058-0.153,0.114-0.229,0.172
				c2.034,2.312,4.088,4.605,6.098,6.937c4.945,5.737,9.869,11.492,14.809,17.233c0.126,0.146,0.334,0.312,0.505,0.314
				c2.273,0.021,4.547,0.014,6.821,0.014c0.028-0.12,0.059-0.24,0.088-0.36C515.264,175.664,505.899,167.562,496.536,159.458z
				 M160.1,183.736c0.029,0.136,0.058,0.271,0.087,0.407c1.235,0,2.483-0.11,3.703,0.024c2.098,0.231,3.477-0.386,4.914-2.154
				c4.255-5.232,8.851-10.188,13.311-15.253c1.907-2.166,3.809-4.337,5.713-6.505c-0.091-0.09-0.183-0.18-0.274-0.27
				C178.403,167.903,169.251,175.819,160.1,183.736z M324.562,188.744c5.626,2.004,11.441,3.056,17.305,3.587
				c0.135,0.815,0.243,1.463,0.351,2.109c0.104-0.016,0.207-0.031,0.311-0.047c0.062-0.658,0.124-1.316,0.195-2.071
				c5.944-0.504,11.718-1.572,17.288-3.578C348.195,188.744,336.378,188.744,324.562,188.744z M207.799,188.316
				c8.822,3.164,17.597,3.301,26.358,0C225.372,188.316,216.585,188.316,207.799,188.316z M476.818,188.363
				c-8.734,0-17.47,0-26.205,0C459.34,191.581,468.066,191.502,476.818,188.363z M192.05,188.188c-8.566,0-17.132,0-25.699,0
				C174.901,190.946,183.46,190.893,192.05,188.188z M518.802,188.232c-8.895,0-17.488,0-26.083,0
				C501.321,190.927,509.906,190.928,518.802,188.232z M467.246,134.555c0.05-0.09,0.1-0.179,0.149-0.269
				c-0.854-0.754-1.805-1.426-2.547-2.277c-2.308-2.648-5.108-3.66-8.616-3.247c-2.186,0.259-4.426,0.049-6.642,0.049
				c-0.017,0.12-0.032,0.24-0.049,0.361C455.443,130.966,461.346,132.761,467.246,134.555z M217.258,134.286
				c0.074,0.089,0.147,0.178,0.221,0.267c5.907-1.801,11.813-3.603,17.721-5.403c-3.679-0.324-7.277-0.336-10.875-0.309
				c-0.389,0.003-0.863,0.12-1.15,0.36C221.181,130.87,219.226,132.585,217.258,134.286z"/>
			<path fill-rule="evenodd" clip-rule="evenodd" fill="#FFFFFF" d="M342.371,353.077c-0.242-0.466-0.429-0.767-0.562-1.09
				c-7.012-17.109-14.028-34.217-20.997-51.344c-0.31-0.762-0.417-1.752-0.233-2.547c7.121-30.83,14.287-61.648,21.45-92.469
				c0.045-0.196,0.14-0.38,0.36-0.965c0.325,1.309,0.575,2.259,0.798,3.215c6.52,28.065,12.91,56.162,19.669,84.17
				c1.252,5.186,0.876,9.566-1.22,14.431c-6.465,15.008-12.483,30.207-18.678,45.331
				C342.806,352.184,342.62,352.544,342.371,353.077z"/>
			<path fill-rule="evenodd" clip-rule="evenodd" fill="#FFFFFF" d="M400.577,145.825c-6.516,4.226-12.708,8.242-18.901,12.258
				c-12.705,8.235-25.415,16.463-38.104,24.723c-0.84,0.547-1.433,0.685-2.354,0.085c-18.574-12.088-37.173-24.135-55.766-36.193
				c-0.343-0.223-0.661-0.481-1.276-0.933c1.817-0.556,3.384-1.034,4.95-1.515c16.974-5.202,33.938-10.437,50.938-15.551
				c1.421-0.427,3.197-0.409,4.622,0.02c18.002,5.421,35.971,10.954,53.945,16.462C399.167,145.344,399.695,145.532,400.577,145.825
				z"/>
			<path fill-rule="evenodd" clip-rule="evenodd" fill="#FFFFFF" d="M366.861,292.476c-7.447-32.038-14.895-64.075-22.387-96.308
				c1.885-0.272,3.677-0.506,5.461-0.795c7.167-1.163,14.098-3.19,20.844-5.847c1.072-0.422,1.922-0.368,2.965,0.082
				c10.146,4.385,20.635,7.306,31.801,7.214c0.205-0.002,0.41,0.037,0.878,0.084c-13.093,31.955-26.142,63.806-39.19,95.655
				C367.108,292.533,366.984,292.504,366.861,292.476z"/>
			<path fill-rule="evenodd" clip-rule="evenodd" fill="#FFFFFF" d="M317.445,292.521c-13.037-31.82-26.075-63.642-39.136-95.521
				c3.169-0.226,6.144-0.32,9.087-0.671c8.287-0.989,16.154-3.493,23.803-6.767c0.644-0.276,1.559-0.405,2.183-0.168
				c8.408,3.2,16.998,5.65,25.973,6.604c0.204,0.021,0.403,0.093,0.858,0.201c-7.468,32.129-14.931,64.231-22.394,96.334
				C317.695,292.528,317.57,292.524,317.445,292.521z"/>
			<path fill-rule="evenodd" clip-rule="evenodd" fill="#FFFFFF" d="M371.974,291.316c1.716-4.196,3.431-8.395,5.149-12.59
				c11.022-26.898,22.051-53.795,33.048-80.705c0.422-1.03,0.918-1.532,2.098-1.668c9.269-1.06,18.177-3.547,26.868-6.897
				c0.678-0.262,1.654-0.211,2.336,0.072c7.865,3.268,15.908,5.63,24.552,5.104c1.657-0.101,3.308-0.331,5.334-0.541
				c-33.196,32.611-66.17,65.003-99.144,97.395C372.135,291.429,372.054,291.372,371.974,291.316z"/>
			<path fill-rule="evenodd" clip-rule="evenodd" fill="#FFFFFF" d="M312.398,291.405c-32.947-32.364-65.894-64.729-98.715-96.972
				c4.062,0,8.14,0.265,12.169-0.062c5.997-0.486,11.673-2.417,17.167-4.826c0.995-0.437,1.802-0.437,2.812-0.041
				c8.518,3.342,17.281,5.78,26.39,6.819c1.273,0.145,1.872,0.627,2.346,1.788c11.742,28.748,23.522,57.479,35.295,86.214
				c0.947,2.312,1.89,4.625,2.834,6.938C312.598,291.311,312.498,291.358,312.398,291.405z"/>
			<path fill-rule="evenodd" clip-rule="evenodd" fill="#FFFFFF" d="M463.801,207.404c-1.974,3.307-3.939,6.617-5.921,9.918
				c-14.852,24.751-29.727,49.488-44.534,74.266c-1.871,3.131-4.01,5.916-6.754,8.366c-19.742,17.621-39.402,35.332-59.089,53.015
				c-0.19,0.17-0.39,0.328-0.866,0.73c0.141-0.627,0.168-0.942,0.282-1.222c6.819-16.677,13.638-33.354,20.495-50.016
				c0.347-0.841,0.916-1.657,1.566-2.297c30.297-29.802,60.619-59.579,90.919-89.377c1.216-1.195,2.257-2.568,3.38-3.858
				C463.453,207.088,463.627,207.246,463.801,207.404z"/>
			<path fill-rule="evenodd" clip-rule="evenodd" fill="#FFFFFF" d="M221.218,207.319c4.148,4.072,8.298,8.144,12.444,12.218
				c27.369,26.888,54.738,53.773,82.091,80.677c0.58,0.569,1.114,1.274,1.421,2.02c6.982,16.954,13.93,33.922,20.879,50.89
				c0.036,0.087,0.015,0.197,0.031,0.481c-0.346-0.244-0.628-0.402-0.863-0.614c-20.63-18.523-41.257-37.049-61.872-55.589
				c-0.614-0.553-1.182-1.207-1.606-1.914c-17.516-29.149-35.013-58.311-52.51-87.472c-0.1-0.167-0.172-0.351-0.257-0.526
				C221.056,207.433,221.137,207.376,221.218,207.319z"/>
			<path fill-rule="evenodd" clip-rule="evenodd" fill="#FFFFFF" d="M409.089,144.972c5.55-3.601,10.814-7.017,16.08-10.432
				c2.329-1.51,4.71-2.943,6.973-4.547c1.636-1.16,3.034-1.356,5.044-0.585c4.096,1.571,8.381,2.644,12.588,3.924
				c6.811,2.071,13.617,4.155,20.436,6.199c0.84,0.252,1.325,0.53,1.372,1.55c0.616,13.235,1.28,26.469,1.931,39.703
				c0.012,0.256,0.001,0.514,0.001,1.051C452.009,169.53,430.681,157.326,409.089,144.972z"/>
			<path fill-rule="evenodd" clip-rule="evenodd" fill="#FFFFFF" d="M275.533,145.011c-21.486,12.297-42.786,24.486-64.274,36.784
				c-0.04-0.563-0.106-0.943-0.088-1.319c0.629-12.824,1.294-25.647,1.866-38.475c0.069-1.55,0.529-2.242,2.068-2.697
				c10.449-3.088,20.927-6.104,31.251-9.574c3.057-1.027,5.103-0.563,7.586,1.125c6.628,4.507,13.423,8.768,20.149,13.131
				C274.514,144.26,274.915,144.57,275.533,145.011z"/>
			<path fill-rule="evenodd" clip-rule="evenodd" fill="#FFFFFF" d="M511.028,194.192c-5.323,5.562-10.571,11.046-15.817,16.529
				c-18.801,19.649-37.601,39.299-56.4,58.948c-4.451,6.53-11.145,10.761-16.643,16.217c-0.26,0.258-0.541,0.494-0.824,0.727
				c-0.07,0.057-0.184,0.061-0.465,0.146c0.204-0.419,0.328-0.73,0.498-1.015c17.783-29.651,35.568-59.302,53.361-88.948
				c0.82-1.366,1.707-2.692,2.566-4.034c0.054-0.085,0.132-0.204,0.213-0.217c3.037-0.482,5.521-3.063,9.092-1.763
				c5.425,1.975,11.097,3.114,16.893,3.39C505.941,194.288,508.393,194.192,511.028,194.192z"/>
			<path fill-rule="evenodd" clip-rule="evenodd" fill="#FFFFFF" d="M263.565,286.829c-5.216-4.688-10.972-8.917-15.482-14.207
				c-3.724-4.367-7.636-8.535-11.569-12.675c-20.606-21.687-41.327-43.265-62.006-64.882c-0.25-0.262-0.482-0.539-0.824-0.922
				c0.271-0.082,0.446-0.193,0.606-0.175c8.368,0.977,16.372-0.794,24.263-3.283c1.326-0.418,2.508-0.609,3.74,0.127
				c0.265,0.159,0.577,0.295,0.879,0.328c3.454,0.384,5.146,2.955,6.708,5.552c17.89,29.766,35.746,59.551,53.609,89.331
				c0.125,0.209,0.223,0.434,0.333,0.651C263.736,286.727,263.651,286.778,263.565,286.829z"/>
			<path fill-rule="evenodd" clip-rule="evenodd" fill="#FFFFFF" d="M277.053,184.646c1.287-12.172,2.542-24.029,3.834-36.249
				c18.73,12.142,37.221,24.128,55.921,36.249C316.775,184.646,297.062,184.646,277.053,184.646z"/>
			<path fill-rule="evenodd" clip-rule="evenodd" fill="#FFFFFF" d="M403.807,148.393c1.293,12.217,2.547,24.072,3.83,36.191
				c-19.88,0-39.627,0-59.654,0C366.596,172.517,385.053,160.551,403.807,148.393z"/>
			<path fill-rule="evenodd" clip-rule="evenodd" fill="#FFFFFF" d="M215.381,183.938c20.414-11.682,40.829-23.363,61.542-35.216
				c-1.287,12.156-2.532,23.917-3.77,35.61c-19.314,0-38.498,0-57.681,0C215.442,184.201,215.412,184.069,215.381,183.938z"/>
			<path fill-rule="evenodd" clip-rule="evenodd" fill="#FFFFFF" d="M469.271,184.333c-0.499,0-0.998-0.002-1.497,0
				c-18.074,0.076-36.148,0.13-54.223,0.267c-1.611,0.013-2.076-0.437-2.234-2.03c-1.046-10.634-2.212-21.256-3.336-31.882
				c-0.055-0.513-0.076-1.029-0.139-1.923c20.652,11.816,41.066,23.495,61.479,35.175
				C469.305,184.07,469.287,184.202,469.271,184.333z"/>
			<path fill-rule="evenodd" clip-rule="evenodd" fill="#FFFFFF" d="M209.159,142.438c-0.688,13.881-1.377,27.761-2.07,41.745
				c-11.612,0-23.109,0-35.105,0c12.47-14.166,24.669-28.025,36.869-41.885C208.955,142.346,209.057,142.392,209.159,142.438z"/>
			<path fill-rule="evenodd" clip-rule="evenodd" fill="#FFFFFF" d="M512.693,184.159c-11.924,0-23.381,0-35.085,0
				c-0.688-13.874-1.38-27.789-2.071-41.704c0.112-0.038,0.226-0.076,0.338-0.114C488.046,156.164,500.216,169.987,512.693,184.159z
				"/>
			<path fill-rule="evenodd" clip-rule="evenodd" fill="#FFFFFF" d="M326.409,128.756c-3.824,1.169-7.316,2.236-10.808,3.305
				c-11.469,3.508-22.935,7.027-34.417,10.493c-0.669,0.202-1.642,0.248-2.18-0.095c-6.933-4.409-13.813-8.901-20.661-13.703
				C280.908,128.756,303.474,128.756,326.409,128.756z"/>
			<path fill-rule="evenodd" clip-rule="evenodd" fill="#FFFFFF" d="M358.366,128.698c22.876,0,45.409,0,68.378,0
				c-0.672,0.522-0.963,0.785-1.287,0.996c-6.504,4.22-12.998,8.453-19.537,12.616c-0.564,0.359-1.506,0.511-2.14,0.319
				c-14.687-4.436-29.354-8.932-44.022-13.42C359.381,129.094,359.016,128.938,358.366,128.698z"/>
			<path fill-rule="evenodd" clip-rule="evenodd" fill="#FFFFFF" d="M212.386,240.84c-2.122-1.9-4.246-3.798-6.365-5.702
				c-16.244-14.593-32.49-29.182-48.713-43.797c-0.494-0.445-0.748-1.158-1.297-2.04c3.796,1.157,7.092,2.154,10.379,3.179
				c0.327,0.102,0.656,0.318,0.894,0.567c14.718,15.413,29.427,30.834,44.136,46.255c0.408,0.429,0.809,0.864,1.213,1.298
				C212.549,240.68,212.467,240.76,212.386,240.84z"/>
			<path fill-rule="evenodd" clip-rule="evenodd" fill="#FFFFFF" d="M471.19,241.488c5.576-5.829,11.153-11.657,16.729-17.486
				c9.454-9.885,18.935-19.746,28.33-29.687c1.171-1.24,2.411-1.969,4.02-2.408c2.663-0.729,5.271-1.661,7.901-2.508
				c0.126,0.092,0.253,0.185,0.379,0.277c-0.465,0.635-0.836,1.372-1.407,1.889c-9.764,8.814-19.551,17.604-29.334,26.396
				c-8.226,7.391-16.452,14.779-24.681,22.167c-0.582,0.522-1.181,1.027-1.771,1.54C471.302,241.608,471.246,241.548,471.19,241.488
				z"/>
			<path fill-rule="evenodd" clip-rule="evenodd" fill="#FFFFFF" d="M429.357,188.641c-15.556,5.058-30.974,6.086-46.436,0
				C398.343,188.641,413.764,188.641,429.357,188.641z"/>
			<path fill-rule="evenodd" clip-rule="evenodd" fill="#FFFFFF" d="M301.818,188.529c-15.422,6.198-30.845,5.172-46.247,0
				C270.987,188.529,286.403,188.529,301.818,188.529z"/>
			<path fill-rule="evenodd" clip-rule="evenodd" fill="#FFFFFF" d="M496.536,159.458c9.363,8.104,18.728,16.206,28.091,24.31
				c-0.029,0.12-0.06,0.24-0.088,0.36c-2.274,0-4.548,0.007-6.821-0.014c-0.171-0.002-0.379-0.169-0.505-0.314
				c-4.939-5.741-9.863-11.496-14.809-17.233c-2.01-2.331-4.063-4.625-6.098-6.937C496.383,159.572,496.459,159.516,496.536,159.458
				z"/>
			<path fill-rule="evenodd" clip-rule="evenodd" fill="#FFFFFF" d="M160.1,183.736c9.151-7.917,18.303-15.833,27.454-23.75
				c0.091,0.09,0.183,0.18,0.274,0.27c-1.904,2.168-3.806,4.339-5.713,6.505c-4.46,5.065-9.056,10.021-13.311,15.253
				c-1.438,1.769-2.816,2.386-4.914,2.154c-1.22-0.135-2.468-0.024-3.703-0.024C160.158,184.008,160.129,183.872,160.1,183.736z"/>
			<path fill-rule="evenodd" clip-rule="evenodd" fill="#FFFFFF" d="M324.562,188.744c11.816,0,23.633,0,35.45,0
				c-5.57,2.006-11.344,3.074-17.288,3.578c-0.071,0.755-0.134,1.413-0.195,2.071c-0.104,0.016-0.207,0.031-0.311,0.047
				c-0.108-0.646-0.216-1.294-0.351-2.109C336.003,191.8,330.188,190.748,324.562,188.744z"/>
			<path fill-rule="evenodd" clip-rule="evenodd" fill="#FFFFFF" d="M207.799,188.316c8.786,0,17.572,0,26.358,0
				C225.396,191.617,216.621,191.48,207.799,188.316z"/>
			<path fill-rule="evenodd" clip-rule="evenodd" fill="#FFFFFF" d="M476.818,188.363c-8.752,3.139-17.479,3.218-26.205,0
				C459.349,188.363,468.084,188.363,476.818,188.363z"/>
			<path fill-rule="evenodd" clip-rule="evenodd" fill="#FFFFFF" d="M192.05,188.188c-8.59,2.704-17.149,2.758-25.699,0
				C174.918,188.188,183.484,188.188,192.05,188.188z"/>
			<path fill-rule="evenodd" clip-rule="evenodd" fill="#FFFFFF" d="M518.802,188.232c-8.896,2.695-17.48,2.694-26.083,0
				C501.313,188.232,509.907,188.232,518.802,188.232z"/>
			<path fill-rule="evenodd" clip-rule="evenodd" fill="#FFFFFF" d="M467.246,134.555c-5.9-1.794-11.803-3.589-17.704-5.383
				c0.017-0.121,0.032-0.241,0.049-0.361c2.216,0,4.456,0.21,6.642-0.049c3.508-0.413,6.309,0.599,8.616,3.247
				c0.742,0.852,1.692,1.523,2.547,2.277C467.346,134.376,467.296,134.465,467.246,134.555z"/>
			<path fill-rule="evenodd" clip-rule="evenodd" fill="#FFFFFF" d="M217.258,134.286c1.968-1.701,3.923-3.416,5.917-5.085
				c0.287-0.24,0.761-0.357,1.15-0.36c3.598-0.027,7.196-0.016,10.875,0.309c-5.907,1.801-11.814,3.603-17.721,5.403
				C217.406,134.464,217.332,134.375,217.258,134.286z"/>
		</g>
	</g>
</g>
</svg>
